<svg width="40" height="40" viewBox="0 0 40 40" fill="none" xmlns="http://www.w3.org/2000/svg">
<circle cx="20" cy="20" r="19" fill="white" stroke="#BDBDBD" stroke-width="2" stroke-dasharray="4 4"/>
<path d="M26 20.998H21V25.998C21 26.2632 20.8946 26.5176 20.7071 26.7051C20.5196 26.8926 20.2652 26.998 20 26.998C19.7348 26.998 19.4804 26.8926 19.2929 26.7051C19.1054 26.5176 19 26.2632 19 25.998V20.998H14C13.7348 20.998 13.4804 20.8926 13.2929 20.7051C13.1054 20.5176 13 20.2632 13 19.998C13 19.7328 13.1054 19.4784 13.2929 19.2909C13.4804 19.1034 13.7348 18.998 14 18.998H19V13.998C19 13.7328 19.1054 13.4784 19.2929 13.2909C19.4804 13.1034 19.7348 12.998 20 12.998C20.2652 12.998 20.5196 13.1034 20.7071 13.2909C20.8946 13.4784 21 13.7328 21 13.998V18.998H26C26.2652 18.998 26.5196 19.1034 26.7071 19.2909C26.8946 19.4784 27 19.7328 27 19.998C27 20.2632 26.8946 20.5176 26.7071 20.7051C26.5196 20.8926 26.2652 20.998 26 20.998Z" fill="black"/>
</svg>
